<svg xmlns="http://www.w3.org/2000/svg" xmlns:xlink="http://www.w3.org/1999/xlink" width="80" height="80" viewBox="0 0 80 80"><defs><style>.a{fill:url(#a);}.b{fill:#fff;}</style><linearGradient id="a" x1="0.5" x2="0.5" y2="1" gradientUnits="objectBoundingBox"><stop offset="0" stop-color="#5e74dc"/><stop offset="1" stop-color="#444169"/></linearGradient></defs><g transform="translate(0.237)"><circle class="a" cx="40" cy="40" r="40" transform="translate(-0.237)"/><g transform="translate(1 1.69)"><g transform="translate(12.763 17)"><g transform="translate(0)"><path class="b" d="M29.186,39.382V38.031H20.069v1.351a2.7,2.7,0,0,1-2.7,2.7H15.141v2.7H34.113v-2.7H31.887A2.7,2.7,0,0,1,29.186,39.382Z" transform="translate(1.057 -1.226)"/><path class="b" d="M48.616,3.662H.036V6.22c-.005.07-.021.137-.021.209V39.118H51.362V36.56c.005-.069.021-.138.021-.209V3.662ZM25.7,37.471a1.351,1.351,0,1,1,1.351-1.351A1.35,1.35,0,0,1,25.7,37.471ZM2.8,33.376V6.172H48.616v27.2Z" transform="translate(-0.015 -3.662)"/></g></g><g transform="translate(18.414 22.651)"><g transform="translate(29.971 18.979)"><path class="b" d="M23.994,27a1,1,0,0,1-1,1H19a1,1,0,0,1-1-1h0a1,1,0,0,1,1-1h4a1,1,0,0,1,1,1Z" transform="translate(-18 -26)"/></g><g transform="translate(13.987 18.979)"><g transform="translate(0)"><path class="b" d="M23.987,27a1,1,0,0,1-1,1H11a1,1,0,0,1-1-1h0a1,1,0,0,1,1-1H22.987a1,1,0,0,1,1,1Z" transform="translate(-10 -26)"/></g></g><g transform="translate(3.996 18.979)"><path class="b" d="M12.992,27a1,1,0,0,1-1,1H6a1,1,0,0,1-1-1H5a1,1,0,0,1,1-1h5.994a1,1,0,0,1,1,1Z" transform="translate(-5 -26)"/></g><g transform="translate(17.983 15.183)"><path class="b" d="M27.985,25a1,1,0,0,1-1,1H13a1,1,0,0,1-1-1h0a1,1,0,0,1,1-1H26.986a1,1,0,0,1,1,1Z" transform="translate(-12 -24)"/></g><g transform="translate(3.996 15.183)"><path class="b" d="M16.988,25a1,1,0,0,1-1,1H6a1,1,0,0,1-1-1H5a1,1,0,0,1,1-1h9.99a1,1,0,0,1,1,1Z" transform="translate(-5 -24)"/></g><g transform="translate(0 11.387)"><path class="b" d="M10.992,23a1,1,0,0,1-1,1H4a1,1,0,0,1-1-1H3a1,1,0,0,1,1-1H9.993a1,1,0,0,1,1,1Z" transform="translate(-3 -22)"/></g><g transform="translate(17.983 7.592)"><path class="b" d="M25.987,21a1,1,0,0,1-1,1H13a1,1,0,0,1-1-1h0a1,1,0,0,1,1-1H24.987a1,1,0,0,1,1,1Z" transform="translate(-12 -20)"/></g><g transform="translate(9.99 7.592)"><path class="b" d="M13.994,21a1,1,0,0,1-1,1H9a1,1,0,0,1-1-1H8a1,1,0,0,1,1-1h4a1,1,0,0,1,1,1Z" transform="translate(-8 -20)"/></g><g transform="translate(3.996 7.592)"><path class="b" d="M9,21a1,1,0,0,1-1,1H6a1,1,0,0,1-1-1H5a1,1,0,0,1,1-1H8a1,1,0,0,1,1,1Z" transform="translate(-5 -20)"/></g><g transform="translate(27.973 3.796)"><path class="b" d="M21,19a1,1,0,0,1-1,1H18a1,1,0,0,1-1-1h0a1,1,0,0,1,1-1h2a1,1,0,0,1,1,1Z" transform="translate(-17 -18)"/></g><g transform="translate(15.985 3.796)"><path class="b" d="M20.99,19a1,1,0,0,1-1,1H12a1,1,0,0,1-1-1h0a1,1,0,0,1,1-1h7.992a1,1,0,0,1,1,1Z" transform="translate(-11 -18)"/></g><g transform="translate(3.996 3.796)"><path class="b" d="M14.99,19a1,1,0,0,1-1,1H6a1,1,0,0,1-1-1H5a1,1,0,0,1,1-1h7.992a1,1,0,0,1,1,1Z" transform="translate(-5 -18)"/></g><g transform="translate(0)"><path class="b" d="M10.992,17a1,1,0,0,1-1,1H4a1,1,0,0,1-1-1H3a1,1,0,0,1,1-1H9.993a1,1,0,0,1,1,1Z" transform="translate(-3 -16)"/></g></g></g></g></svg>