<svg xmlns="http://www.w3.org/2000/svg" xmlns:xlink="http://www.w3.org/1999/xlink" width="80" height="80" viewBox="0 0 80 80"><defs><style>.a{fill:url(#a);}.b{fill:#fff;}</style><linearGradient id="a" x1="0.5" x2="0.5" y2="1" gradientUnits="objectBoundingBox"><stop offset="0" stop-color="#6077e2"/><stop offset="1" stop-color="#443e66"/></linearGradient></defs><g transform="translate(0.402)"><circle class="a" cx="40" cy="40" r="40" transform="translate(-0.402)"/><g transform="translate(17.016 19.377)"><path class="b" d="M9.324,192.156l1.377-.385H0v1.238H8.388A1.17,1.17,0,0,1,9.324,192.156Z" transform="translate(0 -153.66)"/><path class="b" d="M16.036,184.086a1.155,1.155,0,0,1,.443-.906H5.79v1.242H16.036Z" transform="translate(-4.639 -146.777)"/><path class="b" d="M20.774,29.8h.6V23.244a1.079,1.079,0,0,1-.6-.966V21.006a1.081,1.081,0,0,1,1.081-1.075H27.6V15.45H7.77V29.966H20.206A1.087,1.087,0,0,1,20.774,29.8Z" transform="translate(-6.226 -12.378)"/><path class="b" d="M173.8,191.77l1.379.385a1.17,1.17,0,0,1,.936.856H184.5V191.77Z" transform="translate(-139.413 -153.66)"/><path class="b" d="M10.27,109.512H21.6l.7-.2v-1.367H20.017v-.558h2.275v-.113h-2.1V105.2a1.242,1.242,0,0,1,2.1-.9v-1.767H20.017v-.572h2.275v-.113h-2.1V99.8a1.24,1.24,0,0,1,2.1-.9V97.128H20.017v-.572h2.275v-.113h-2.1V94.386a1.244,1.244,0,0,1,1.244-1.244,1.125,1.125,0,0,1,.26.03V92.112a1.057,1.057,0,0,1,.032-.252H10.27Zm5.763-15.126a1.244,1.244,0,0,1,2.488,0v2.057h-2.5Zm-.173,2.17h2.824v.572H15.85ZM18.511,99.8v2.057H16.023V99.8a1.244,1.244,0,1,1,2.488,0Zm-2.661,2.17h2.834v.572H15.85Zm2.661,3.235v2.057H16.023V105.2a1.244,1.244,0,0,1,2.488,0Zm-2.661,2.186h2.834v.572H15.85Zm-3.992-13a1.244,1.244,0,1,1,2.486,0v2.057H11.858Zm-.175,2.17h2.834v.572H11.683ZM14.344,99.8v2.057H11.858V99.8a1.244,1.244,0,1,1,2.486,0Zm-2.661,2.17h2.834v.572H11.683Zm2.661,3.235v2.057H11.858V105.2a1.244,1.244,0,0,1,2.486,0Zm-2.661,2.186h2.834v.572H11.683Z" transform="translate(-8.229 -73.604)"/><path class="b" d="M168.912,91.86H157.456a1.169,1.169,0,0,1,.032.252v1.059a1.125,1.125,0,0,1,.26-.03,1.244,1.244,0,0,1,1.244,1.244v2.057h-2.1v.113h2.277v.572H156.89V98.9a1.24,1.24,0,0,1,2.1.9v2.057h-2.1v.113h2.277v.572H156.89v1.773a1.242,1.242,0,0,1,2.1.89v2.057h-2.1v.129h2.277v.572H156.89v1.367l.7.2h11.327Zm-4.074,2.526a1.244,1.244,0,0,1,2.488,0v2.057h-2.488Zm-4.173,0a1.244,1.244,0,1,1,2.488,0v2.057h-2.482Zm2.661,13.564H160.5v-.562h2.834Zm-2.661-.686V105.2a1.244,1.244,0,0,1,2.488,0v2.057Zm2.661-4.725H160.5v-.572h2.834Zm-2.661-.686V99.8a1.244,1.244,0,1,1,2.488,0v2.057Zm2.661-4.725H160.5v-.572h2.834ZM167.5,107.95h-2.838v-.562H167.5Zm-2.661-.686V105.2a1.244,1.244,0,0,1,2.488,0v2.057Zm2.661-4.725h-2.838v-.572H167.5Zm-2.661-.686V99.8a1.244,1.244,0,0,1,2.488,0v2.057Zm2.661-4.726h-2.838v-.572H167.5Z" transform="translate(-125.864 -73.604)"/><path class="b" d="M128.1,17.082a1.081,1.081,0,0,1-1.6.922,4.262,4.262,0,0,0-3.11.07,7.633,7.633,0,0,1-2.192.322H121V20h5.564a1.083,1.083,0,0,1,1.083,1.083v1.272a1.079,1.079,0,0,1-.6.966v6.558h.6a1.079,1.079,0,0,1,.566.165h12.436V15.54H128.142Z" transform="translate(-97.105 -12.45)"/><path class="b" d="M178.771,184.422V183.18H168.08a1.155,1.155,0,0,1,.443.906v.336Z" transform="translate(-134.83 -146.777)"/><rect class="b" width="16.146" height="1.272" transform="translate(14.473 18.508)"/><rect class="b" width="13.982" height="1.272" transform="translate(15.554 8.632)"/><rect class="b" width="20.13" height="1.926" transform="translate(12.48 37.309)"/><path class="b" d="M83,189.431H62.867a.077.077,0,0,1-.077-.077v-1.926a.079.079,0,0,1,.077-.077H83a.078.078,0,0,1,.077.077v1.926a.076.076,0,0,1-.077.077Zm-20.053-.163H82.92V187.5H62.945Z" transform="translate(-50.388 -150.119)"/><path class="b" d="M73.616,195.913H47.559a.083.083,0,0,1-.081-.072.087.087,0,0,1,.059-.093l3.021-.849H70.617l3.021.849a.087.087,0,0,1,.059.093A.081.081,0,0,1,73.616,195.913Zm-25.455-.167H73.013l-2.43-.684H50.591Z" transform="translate(-38.042 -156.168)"/><path class="b" d="M83.176,185.139H63.118a.06.06,0,0,1-.06-.05.058.058,0,0,1,.044-.064l2.14-.6H81.054l2.138.6a.058.058,0,0,1,.044.064A.06.06,0,0,1,83.176,185.139Zm-19.633-.117H82.751l-1.723-.479H65.266Z" transform="translate(-50.602 -147.779)"/><rect class="b" width="26.057" height="1.926" transform="translate(9.517 39.652)"/><path class="b" d="M73.578,201.178H47.521a.093.093,0,0,1-.091-.091v-1.926a.093.093,0,0,1,.091-.091H73.578a.093.093,0,0,1,.091.091v1.926a.093.093,0,0,1-.091.091ZM47.612,201H73.5v-1.741H47.612Z" transform="translate(-38.005 -159.51)"/><path class="b" d="M65.319,207.256H33.829a.1.1,0,0,1-.095-.079.1.1,0,0,1,.059-.107l2.65-1.075a.107.107,0,0,1,.036,0H62.562a.1.1,0,0,1,.034,0l2.769,1.067a.1.1,0,0,1-.036.187Zm-30.99-.2H64.8l-2.257-.864H36.5Z" transform="translate(-27.029 -165.057)"/><path class="b" d="M76.21,100.45V117.2H77.8v-8.573h5.721V117.2h.306v-8.573H89.55V117.2h1.612V100.45Zm5.016,7.366h-3.44v-5.481h3.44Zm4.173,0H81.961v-5.481H85.4Zm4.173,0H86.146v-5.481h3.44Z" transform="translate(-61.141 -80.487)"/><rect class="b" width="0.495" height="9.022" transform="translate(22.38 0.246)"/><path class="b" d="M113.687.315a2.5,2.5,0,0,1,.483,1.725c-.02,1.2-.125,2.466-.62,2.583a6.381,6.381,0,0,0,3.559-.052c1.951-.6,3.179-.4,3.945.022l.1-4.27a5.153,5.153,0,0,0-3.611-.056,6.629,6.629,0,0,1-3.857.048Z" transform="translate(-91.076 0.009)"/><path class="b" d="M81.66,50.75v8.173H94.445V50.75ZM87.888,57.8a2.969,2.969,0,1,1,2.967-2.968A2.969,2.969,0,0,1,87.888,57.8Z" transform="translate(-65.508 -40.663)"/><path class="b" d="M113.614,63.585a.054.054,0,0,1-.054-.056V61.654a.054.054,0,1,1,.107,0V63.53a.054.054,0,0,1-.054.056Z" transform="translate(-91.069 -49.357)"/><path class="b" d="M100.464,61.92h-.123l.02-.541h.1Zm2.114-.841-.37-.4.066-.066.384.384Zm-4.326-.07-.077-.079.4-.37.066.066Zm5.308-2.1-.541-.016v-.085h.541a.765.765,0,0,1,0,.1Zm-6.22-.1h0V58.7l.541.018v.089Zm4.988-1.759-.064-.066.374-.389.077.079ZM98.632,57l-.384-.384.081-.077.368.4Zm1.908-.755h-.087V55.7h.109Z" transform="translate(-78.071 -44.63)"/><path class="b" d="M113.383,67.187a.105.105,0,0,1-.079-.036.109.109,0,0,1,0-.153l1.009-.938a.107.107,0,0,1,.153,0,.109.109,0,0,1,0,.153l-1.01.94A.113.113,0,0,1,113.383,67.187Z" transform="translate(-90.84 -52.906)"/></g></g></svg>